<svg width="40" height="40" viewBox="0 0 40 40" fill="none" xmlns="http://www.w3.org/2000/svg">
<path fill-rule="evenodd" clip-rule="evenodd" d="M27.8582 20.0854V15.0687L25.4296 14.3907V9.62976L27.8582 10.3077V10.225L35.001 12.2184V22.1313L27.8582 20.0854ZM16.4297 16.812V1L23.5726 2.99349V18.8577L16.4297 16.812ZM23.5726 22.2803V39L16.4297 37.0066V20.2343L23.5726 22.2803ZM35.001 30.3704L27.8582 28.377V23.6157L35.001 25.6091V30.3704Z" fill="#5856FF"/>
<path fill-rule="evenodd" clip-rule="evenodd" d="M5 8.58789L12.1428 10.581V15.342L5 13.3489V8.58789ZM12.1428 19.0061V23.7175V28.1379V28.4395L5 30.4164V26.1446V25.6946V16.9606L12.1428 19.0061Z" fill="#00D9FF"/>
</svg>
